<svg width="262" height="41" viewBox="0 0 262 41" fill="none" xmlns="http://www.w3.org/2000/svg">
<path fill-rule="evenodd" clip-rule="evenodd" d="M29.5229 10.4791C32.1887 10.4791 34.3498 8.31801 34.3498 5.6522C34.3498 2.98638 32.1887 0.825317 29.5229 0.825317C26.8571 0.825317 24.696 2.98638 24.696 5.6522C24.696 8.31801 26.8571 10.4791 29.5229 10.4791Z" fill="#8D8BA7"/>
<path fill-rule="evenodd" clip-rule="evenodd" d="M29.5227 22.6019C32.1885 22.6019 34.3496 20.4409 34.3496 17.7752C34.3496 15.1095 32.1885 12.9485 29.5227 12.9485C26.8569 12.9485 24.6958 15.1095 24.6958 17.7752C24.6958 20.4409 26.8569 22.6019 29.5227 22.6019Z" fill="#8D8BA7"/>
<path fill-rule="evenodd" clip-rule="evenodd" d="M29.5227 35.1746C32.1885 35.1746 34.3496 33.0136 34.3496 30.3478C34.3496 27.6819 32.1885 25.5209 29.5227 25.5209C26.8569 25.5209 24.6958 27.6819 24.6958 30.3478C24.6958 33.0136 26.8569 35.1746 29.5227 35.1746Z" fill="#8D8BA7"/>
<path fill-rule="evenodd" clip-rule="evenodd" d="M16.9505 22.6021C19.6162 22.6021 21.7772 20.4411 21.7772 17.7753C21.7772 15.1096 19.6162 12.9486 16.9505 12.9486C14.2848 12.9486 12.1238 15.1096 12.1238 17.7753C12.1238 20.4411 14.2848 22.6021 16.9505 22.6021Z" fill="#8D8BA7"/>
<path fill-rule="evenodd" clip-rule="evenodd" d="M16.9505 35.1746C19.6162 35.1746 21.7772 33.0136 21.7772 30.3478C21.7772 27.6819 19.6162 25.5209 16.9505 25.5209C14.2848 25.5209 12.1238 27.6819 12.1238 30.3478C12.1238 33.0136 14.2848 35.1746 16.9505 35.1746Z" fill="#8D8BA7"/>
<path fill-rule="evenodd" clip-rule="evenodd" d="M4.82688 35.1746C7.49269 35.1746 9.65376 33.0136 9.65376 30.3478C9.65376 27.6819 7.49269 25.5209 4.82688 25.5209C2.16107 25.5209 0 27.6819 0 30.3478C0 33.0136 2.16107 35.1746 4.82688 35.1746Z" fill="#8D8BA7"/>
<path d="M54.3281 2V32H48.6836V2H54.3281ZM58.0781 21.6484V21.2383C58.0781 19.6888 58.2995 18.263 58.7422 16.9609C59.1849 15.6458 59.8294 14.5065 60.6758 13.543C61.5221 12.5794 62.5638 11.8307 63.8008 11.2969C65.0378 10.75 66.457 10.4766 68.0586 10.4766C69.6602 10.4766 71.0859 10.75 72.3359 11.2969C73.5859 11.8307 74.6341 12.5794 75.4805 13.543C76.3398 14.5065 76.9909 15.6458 77.4336 16.9609C77.8763 18.263 78.0977 19.6888 78.0977 21.2383V21.6484C78.0977 23.1849 77.8763 24.6107 77.4336 25.9258C76.9909 27.2279 76.3398 28.3672 75.4805 29.3438C74.6341 30.3073 73.5924 31.056 72.3555 31.5898C71.1185 32.1237 69.6992 32.3906 68.0977 32.3906C66.4961 32.3906 65.0703 32.1237 63.8203 31.5898C62.5833 31.056 61.5352 30.3073 60.6758 29.3438C59.8294 28.3672 59.1849 27.2279 58.7422 25.9258C58.2995 24.6107 58.0781 23.1849 58.0781 21.6484ZM63.7031 21.2383V21.6484C63.7031 22.5339 63.7812 23.3607 63.9375 24.1289C64.0938 24.8971 64.3411 25.5742 64.6797 26.1602C65.0312 26.7331 65.487 27.1823 66.0469 27.5078C66.6068 27.8333 67.2904 27.9961 68.0977 27.9961C68.8789 27.9961 69.5495 27.8333 70.1094 27.5078C70.6693 27.1823 71.1185 26.7331 71.457 26.1602C71.7956 25.5742 72.043 24.8971 72.1992 24.1289C72.3685 23.3607 72.4531 22.5339 72.4531 21.6484V21.2383C72.4531 20.3789 72.3685 19.5716 72.1992 18.8164C72.043 18.0482 71.7891 17.3711 71.4375 16.7852C71.099 16.1862 70.6497 15.7174 70.0898 15.3789C69.5299 15.0404 68.8529 14.8711 68.0586 14.8711C67.2643 14.8711 66.5872 15.0404 66.0273 15.3789C65.4805 15.7174 65.0312 16.1862 64.6797 16.7852C64.3411 17.3711 64.0938 18.0482 63.9375 18.8164C63.7812 19.5716 63.7031 20.3789 63.7031 21.2383ZM94.9336 10.8672H100.031V31.2969C100.031 33.224 99.6016 34.8581 98.7422 36.1992C97.8958 37.5534 96.7109 38.5755 95.1875 39.2656C93.6641 39.9688 91.8932 40.3203 89.875 40.3203C88.9896 40.3203 88.0521 40.2031 87.0625 39.9688C86.0859 39.7344 85.1484 39.3698 84.25 38.875C83.3646 38.3802 82.6224 37.7552 82.0234 37L84.5039 33.6797C85.1549 34.4349 85.9102 35.0208 86.7695 35.4375C87.6289 35.8672 88.5794 36.082 89.6211 36.082C90.6367 36.082 91.4961 35.8932 92.1992 35.5156C92.9023 35.151 93.4427 34.6107 93.8203 33.8945C94.1979 33.1914 94.3867 32.3385 94.3867 31.3359V15.75L94.9336 10.8672ZM80.7148 21.6875V21.2773C80.7148 19.6628 80.9102 18.1979 81.3008 16.8828C81.7044 15.5547 82.2708 14.4154 83 13.4648C83.7422 12.5143 84.6406 11.7786 85.6953 11.2578C86.75 10.737 87.9414 10.4766 89.2695 10.4766C90.6758 10.4766 91.8542 10.737 92.8047 11.2578C93.7552 11.7786 94.5365 12.5208 95.1484 13.4844C95.7604 14.4349 96.2357 15.5612 96.5742 16.8633C96.9258 18.1523 97.1992 19.5651 97.3945 21.1016V22C97.1992 23.4714 96.9062 24.8385 96.5156 26.1016C96.125 27.3646 95.6107 28.4714 94.9727 29.4219C94.3346 30.3594 93.5404 31.0885 92.5898 31.6094C91.6523 32.1302 90.5326 32.3906 89.2305 32.3906C87.9284 32.3906 86.75 32.1237 85.6953 31.5898C84.6536 31.056 83.7617 30.3073 83.0195 29.3438C82.2773 28.3802 81.7044 27.2474 81.3008 25.9453C80.9102 24.6432 80.7148 23.224 80.7148 21.6875ZM86.3398 21.2773V21.6875C86.3398 22.5599 86.4245 23.3737 86.5938 24.1289C86.763 24.8841 87.0234 25.5547 87.375 26.1406C87.7396 26.7135 88.1888 27.1628 88.7227 27.4883C89.2695 27.8008 89.9141 27.957 90.6562 27.957C91.6849 27.957 92.5247 27.7422 93.1758 27.3125C93.8268 26.8698 94.3151 26.2643 94.6406 25.4961C94.9661 24.7279 95.1549 23.8424 95.207 22.8398V20.2812C95.181 19.4609 95.0703 18.7253 94.875 18.0742C94.6797 17.4102 94.4062 16.8438 94.0547 16.375C93.7031 15.9062 93.2474 15.5417 92.6875 15.2812C92.1276 15.0208 91.4635 14.8906 90.6953 14.8906C89.9531 14.8906 89.3086 15.0599 88.7617 15.3984C88.2279 15.724 87.7786 16.1732 87.4141 16.7461C87.0625 17.319 86.7956 17.9961 86.6133 18.7773C86.431 19.5456 86.3398 20.3789 86.3398 21.2773ZM103.508 21.6484V21.2383C103.508 19.6888 103.729 18.263 104.172 16.9609C104.615 15.6458 105.259 14.5065 106.105 13.543C106.952 12.5794 107.993 11.8307 109.23 11.2969C110.467 10.75 111.887 10.4766 113.488 10.4766C115.09 10.4766 116.516 10.75 117.766 11.2969C119.016 11.8307 120.064 12.5794 120.91 13.543C121.77 14.5065 122.421 15.6458 122.863 16.9609C123.306 18.263 123.527 19.6888 123.527 21.2383V21.6484C123.527 23.1849 123.306 24.6107 122.863 25.9258C122.421 27.2279 121.77 28.3672 120.91 29.3438C120.064 30.3073 119.022 31.056 117.785 31.5898C116.548 32.1237 115.129 32.3906 113.527 32.3906C111.926 32.3906 110.5 32.1237 109.25 31.5898C108.013 31.056 106.965 30.3073 106.105 29.3438C105.259 28.3672 104.615 27.2279 104.172 25.9258C103.729 24.6107 103.508 23.1849 103.508 21.6484ZM109.133 21.2383V21.6484C109.133 22.5339 109.211 23.3607 109.367 24.1289C109.523 24.8971 109.771 25.5742 110.109 26.1602C110.461 26.7331 110.917 27.1823 111.477 27.5078C112.036 27.8333 112.72 27.9961 113.527 27.9961C114.309 27.9961 114.979 27.8333 115.539 27.5078C116.099 27.1823 116.548 26.7331 116.887 26.1602C117.225 25.5742 117.473 24.8971 117.629 24.1289C117.798 23.3607 117.883 22.5339 117.883 21.6484V21.2383C117.883 20.3789 117.798 19.5716 117.629 18.8164C117.473 18.0482 117.219 17.3711 116.867 16.7852C116.529 16.1862 116.079 15.7174 115.52 15.3789C114.96 15.0404 114.283 14.8711 113.488 14.8711C112.694 14.8711 112.017 15.0404 111.457 15.3789C110.91 15.7174 110.461 16.1862 110.109 16.7852C109.771 17.3711 109.523 18.0482 109.367 18.8164C109.211 19.5716 109.133 20.3789 109.133 21.2383Z" fill="#4A3AFF"/>
</svg>
