<svg width="48" height="48" viewBox="0 0 48 48" fill="none" xmlns="http://www.w3.org/2000/svg">
<circle cx="24" cy="24" r="24" fill="#E8C5B0"/>
<path fill-rule="evenodd" clip-rule="evenodd" d="M24 16C21.8267 16 21.556 16.0093 20.7013 16.0493C17.7947 16.1827 16.1813 17.7947 16.048 20.7013C16.0093 21.556 16 21.828 16 24C16 26.1733 16.0093 26.4453 16.048 27.2987C16.1813 30.204 17.7947 31.8187 20.7013 31.952C21.556 31.9907 21.8267 32 24 32C26.1733 32 26.4453 31.9907 27.3 31.952C30.2013 31.8187 31.8213 30.2067 31.952 27.2987C31.9907 26.4453 32 26.1733 32 24C32 21.828 31.9907 21.556 31.952 20.7013C31.8213 17.7987 30.2067 16.1813 27.3 16.0493C26.4453 16.0093 26.1733 16 24 16ZM24 17.4429C26.136 17.4429 26.3893 17.4509 27.2333 17.4895C29.4026 17.5882 30.4133 18.6162 30.5133 20.7682C30.5506 21.6122 30.5586 21.8642 30.5586 24.0002C30.5586 26.1362 30.5506 26.3895 30.5133 27.2322C30.4133 29.3829 29.404 30.4135 27.2333 30.5122C26.3893 30.5495 26.1373 30.5589 24 30.5589C21.864 30.5589 21.6106 30.5509 20.768 30.5122C18.5946 30.4122 17.588 29.3802 17.488 27.2322C17.4506 26.3895 17.4413 26.1362 17.4413 24.0002C17.4413 21.8642 17.4506 21.6109 17.488 20.7682C17.5866 18.6149 18.5973 17.5869 20.768 17.4882C21.6106 17.4495 21.864 17.4429 24 17.4429ZM19.892 24C19.892 21.7307 21.732 19.892 24 19.892C26.268 19.892 28.108 21.732 28.108 24C28.108 26.2693 26.268 28.108 24 28.108C21.732 28.108 19.892 26.2693 19.892 24ZM24 26.6668C22.5267 26.6668 21.3334 25.4735 21.3334 24.0002C21.3334 22.5282 22.5267 21.3335 24 21.3335C25.472 21.3335 26.668 22.5268 26.668 24.0002C26.668 25.4735 25.472 26.6668 24 26.6668ZM27.3093 19.7307C27.3093 19.2 27.74 18.7707 28.2693 18.7707C28.8013 18.7707 29.2307 19.2 29.2307 19.7307C29.2307 20.2613 28.8 20.6907 28.2693 20.6907C27.7387 20.6907 27.3093 20.26 27.3093 19.7307Z" fill="#1D4645"/>
</svg>
